HIERARCHY
ROOT RootJoint
{
    OFFSET   0.000000   0.000000   0.000000
    CHANNELS 6 Xposition Yposition Zposition Xrotation Yrotation Zrotation
    JOINT pelvis_lowerback
    {
        OFFSET   0.000000   0.093605   0.000000
        CHANNELS 3 Xrotation Yrotation Zrotation
        JOINT lowerback_torso
        {
            OFFSET   0.000000   0.100000   0.000000
            CHANNELS 3 Xrotation Yrotation Zrotation
            JOINT torso_head
            {
                OFFSET   0.000000   0.282350   0.000000
                CHANNELS 3 Xrotation Yrotation Zrotation
                End Site
                {
                    OFFSET   0.000000   0.192650   0.000000
                }
            }
            JOINT rTorso_Clavicle
            {
                OFFSET  -0.001000   0.157500   0.000000
                CHANNELS 3 Xrotation Yrotation Zrotation
                JOINT rShoulder
                {
                    OFFSET  -0.117647   0.000000   0.000000
                    CHANNELS 3 Xrotation Yrotation Zrotation
                    JOINT rElbow
                    {
                        OFFSET  -0.245000   0.000000   0.000000
                        CHANNELS 3 Xrotation Yrotation Zrotation
                        JOINT rWrist
                        {
                            OFFSET  -0.240000   0.000000   0.000000
                            CHANNELS 3 Xrotation Yrotation Zrotation
                            End Site
                            {
                                OFFSET  -0.116353  -0.002500   0.000000
                            }
                        }
                    }
                }
            }
            JOINT lTorso_Clavicle
            {
                OFFSET   0.001000   0.157500   0.000000
                CHANNELS 3 Xrotation Yrotation Zrotation
                JOINT lShoulder
                {
                    OFFSET   0.117647   0.000000   0.000000
                    CHANNELS 3 Xrotation Yrotation Zrotation
                    JOINT lElbow
                    {
                        OFFSET   0.245000   0.000000   0.000000
                        CHANNELS 3 Xrotation Yrotation Zrotation
                        JOINT lWrist
                        {
                            OFFSET   0.240000   0.000000   0.000000
                            CHANNELS 3 Xrotation Yrotation Zrotation
                            End Site
                            {
                                OFFSET   0.116353  -0.002500   0.000000
                            }
                        }
                    }
                }
            }
        }
    }
    JOINT rHip
    {
        OFFSET  -0.100000  -0.051395   0.000000
        CHANNELS 3 Xrotation Yrotation Zrotation
        JOINT rKnee
        {
            OFFSET   0.000000  -0.410000   0.000000
            CHANNELS 3 Xrotation Yrotation Zrotation
            JOINT rAnkle
            {
                OFFSET   0.000000  -0.390000   0.000000
                CHANNELS 3 Xrotation Yrotation Zrotation
                JOINT rToeJoint
                {
                    OFFSET   0.000000  -0.050000   0.130000
                    CHANNELS 3 Xrotation Yrotation Zrotation
                    End Site
                    {
                        OFFSET  -0.010000   0.002000   0.060000
                    }
                }
            }
        }
    }
    JOINT lHip
    {
        OFFSET   0.100000  -0.051395   0.000000
        CHANNELS 3 Xrotation Yrotation Zrotation
        JOINT lKnee
        {
            OFFSET   0.000000  -0.410000   0.000000
            CHANNELS 3 Xrotation Yrotation Zrotation
            JOINT lAnkle
            {
                OFFSET   0.000000  -0.390000   0.000000
                CHANNELS 3 Xrotation Yrotation Zrotation
                JOINT lToeJoint
                {
                    OFFSET   0.000000  -0.050000   0.130000
                    CHANNELS 3 Xrotation Yrotation Zrotation
                    End Site
                    {
                        OFFSET   0.010000   0.002000   0.060000
                    }
                }
            }
        }
    }
}
MOTION
Frames: 12
Frame Time:   0.008333
 -2.376719   0.925631   3.975860   0.000000   0.000000   0.000000   0.000000   0.000000   0.000000   0.000000   0.000000   0.000000   0.000000   0.000000   0.000000   0.000000   0.000000   0.000000   0.000000   0.000000   0.000000   0.000000   0.000000   0.000000   0.000000   0.000000   0.000000   0.000000   0.000000   0.000000   0.000000   0.000000   0.000000   0.000000   0.000000   0.000000   0.000000   0.000000   0.000000   0.000000   0.000000   0.000000   0.000000   0.000000   0.000000   0.000000   0.000000   0.000000   0.000000   0.000000   0.000000   0.000000   0.000000   0.000000   0.000000   0.000000   0.000000   0.000000   0.000000   0.000000   0.000000   0.000000   0.000000
 -2.376648   0.925983   3.976303  -0.398323   0.155879  -0.105794   0.327425   0.013535   0.044828   0.152366  -0.142104   0.136756   0.013494   0.155805   0.089470   0.066833  -0.452047   0.000298   0.303680   0.164804   2.264739   0.017954   0.877504  -0.003560   0.151933  -0.210335  -2.690256  -0.042136   0.397867   0.080407   0.418664  -0.075760  -2.388154   0.026697  -1.365104   0.005688   0.201311   0.340450   2.485137   0.088040  -0.027615   0.066360   1.411292   0.000512   0.001570  -1.616579  -0.301783  -0.174256   0.138349   0.000255  -0.000210  -0.047121  -0.250971   0.136699   1.833495  -0.000527  -0.001510  -1.737780   0.018542   0.033359   0.101386  -0.000056  -0.000068
 -2.376496   0.926606   3.977331  -0.865499   0.328212  -0.238854   0.573521   0.026920   0.118364   0.329067  -0.292770   0.307702   0.065608   0.308012   0.190143   0.135334  -0.927904   0.666236   0.593031   0.319435   5.057598   0.040642   1.717318  -0.005132   0.328908  -0.183964  -4.692983  -0.076453   0.796367  -0.514370   0.806803  -0.175575  -5.179649   0.059357  -2.681523   0.008169   0.431068   0.294159   4.208761   0.281481  -0.052454   0.109769   2.941120   0.001749   0.003145  -3.127246  -0.582187  -0.345301   0.198715   0.000340  -0.000240   0.050803  -0.491267   0.310917   3.808255  -0.001242  -0.002324  -3.356224   0.034726   0.064837   0.144160  -0.000072  -0.000074
 -2.376290   0.927125   3.978753  -1.308786   0.504355  -0.378384   0.724140   0.032205   0.207062   0.450604  -0.443993   0.485381   0.114775   0.450729   0.288816   0.208305  -1.403609   1.754930   0.869470   0.459616   8.197179   0.062208   2.494965  -0.005104   0.500110  -0.137628  -5.921908  -0.100800   1.188101  -1.542225   1.163332  -0.275115  -8.138873   0.089299  -3.909570   0.008032   0.654431   0.177622   5.142690   0.503526  -0.076667   0.117518   4.418765   0.003346   0.004279  -4.535476  -0.840319  -0.511937   0.254909   0.000418  -0.000246   0.225148  -0.713972   0.499374   5.717827  -0.001929  -0.002541  -4.863080   0.049371   0.094517   0.189409  -0.000089  -0.000072
 -2.376067   0.927276   3.980412  -1.715876   0.678817  -0.518296   0.801037   0.029650   0.303952   0.516590  -0.593592   0.662008   0.153217   0.583998   0.381797   0.291394  -1.877536   3.092271   1.137377   0.587573  11.572078   0.080203   3.211543  -0.004209   0.656586  -0.127080  -6.573839  -0.110069   1.577544  -2.824503   1.493887  -0.369199 -11.140338   0.113109  -5.049409   0.006476   0.861516   0.078810   5.504770   0.729276  -0.100417   0.092800   5.815207   0.004998   0.004938  -5.850314  -1.077937  -0.673601   0.302800   0.000471  -0.000236   0.446156  -0.920199   0.696262   7.529812  -0.002533  -0.002408  -6.268737   0.062568   0.122506   0.228722  -0.000099  -0.000064
 -2.375834   0.926864   3.982188  -2.090450   0.847960  -0.657602   0.825601   0.020446   0.409328   0.542114  -0.740304   0.843123   0.181890   0.708386   0.465699   0.389100  -2.347026   4.587632   1.393145   0.704454  15.024081   0.093599   3.871142  -0.002946   0.796496  -0.161768  -6.790068  -0.101093   1.964500  -4.244275   1.802720  -0.457449 -14.105762   0.129847  -6.105954   0.004378   1.050515   0.017960   5.481469   0.948848  -0.123475   0.040543   7.127428   0.006542   0.005185  -7.078404  -1.296598  -0.829755   0.342631   0.000499  -0.000217   0.697992  -1.111231   0.898461   9.241264  -0.003010  -0.002105  -7.580553   0.074450   0.148951   0.261254  -0.000104  -0.000055
 -2.375575   0.925738   3.983990  -2.437875   1.008856  -0.796686   0.815056   0.005617   0.527948   0.541640  -0.883397   1.038306   0.202931   0.824504   0.539474   0.503865  -2.806935   6.185351   1.631100   0.810910  18.393427   0.102239   4.478992  -0.001619   0.921525  -0.235579  -6.670902  -0.073033   2.344988  -5.724120   2.092513  -0.541987 -16.986832   0.139850  -7.085660   0.002277   1.223237  -0.006610   5.206696   1.156780  -0.145593  -0.035915   8.357567   0.007903   0.005096  -8.225558  -1.497785  -0.980006   0.375634   0.000507  -0.000194   0.969632  -1.288242   1.102098  10.854637  -0.003321  -0.001758  -8.804924   0.085126   0.173968   0.287831  -0.000103  -0.000046
 -2.375333   0.923257   3.985057  -2.620348   1.082234  -1.043201   0.940319   0.070908   0.841028   0.369915  -0.998519   1.184362   0.171761   0.914854   0.522348   0.587387  -3.276248   7.218069   1.977622   0.915894  21.426801   0.111764   5.276185  -0.001587   0.935166  -0.377043  -5.430926   0.024141   2.778187  -6.445175   2.276349  -0.643444 -19.987825   0.146668  -8.216564   0.000747   1.271875  -0.049612   4.067164   1.035158  -0.254478   0.040841   9.926565   0.008698   0.002915  -9.382427  -1.578290  -0.992852   0.644197   0.000848  -0.000447   1.389280  -1.332307   1.402357  10.768818  -0.002624  -0.001430 -10.087438   0.325583   0.411117   0.579342  -0.000782   0.000641
 -2.375115   0.919612   3.985499  -2.751378   1.278366  -1.289899   1.149725   0.096183   1.161297   0.241035  -1.131146   1.332875   0.137543   0.996856   0.506030   0.664972  -3.698947   7.963940   2.290132   1.042442  24.107302   0.113601   6.029347  -0.002563   0.957039  -0.456564  -4.318374   0.102880   3.148929  -6.910839   2.432571  -0.771604 -22.657209   0.144795  -9.287315   0.000481   1.322307  -0.183376   3.014332   0.898818  -0.372583   0.161362  11.423960   0.008876   0.002725 -10.459089  -1.653354  -1.006783   0.900787   0.001012  -0.000371   1.620565  -1.377378   1.686335  10.412638  -0.002087  -0.001600 -11.305727   0.546781   0.638202   0.797093  -0.001075   0.001235
 -2.374686   0.918875   3.986344  -3.015959   1.235860  -0.914335   1.415579   0.224096   0.992589   0.203033  -1.178325   1.273080   0.135602   1.077141   0.478119   0.734326  -4.062874   8.799418   2.568693   1.195326  26.629452   0.112762   6.737567  -0.003128   0.989775  -0.504232  -3.466184   0.187938   3.522202  -7.404634   2.578896  -0.875019 -25.102179   0.140010 -10.271855   0.000282   1.372895  -0.271205   2.261434   0.956266  -0.438237  -0.273877  12.814972   0.007637   0.000546 -11.453265  -1.723923  -1.022028   1.211697   0.001028  -0.000785   1.696576  -1.341423   1.254058  10.977151  -0.001405  -0.001295 -11.842177   0.772198   0.809749   1.032269  -0.001080   0.001473
 -2.374535   0.918716   3.987268  -3.194754   1.166118  -0.730299   1.620934   0.349404   1.057904   0.154251  -1.204525   1.246714   0.133017   1.151122   0.441880   0.800227  -4.397093   9.419875   2.821223   1.353508  28.913751   0.108611   7.403223  -0.003453   1.024112  -0.520071  -2.665795   0.279896   3.886447  -7.798191   2.719545  -0.968969 -27.384446   0.131827 -11.191715   0.000070   1.419596  -0.352690   1.499293   0.976460  -0.513437  -0.383642  14.119469   0.004926  -0.001137 -12.384278  -1.789094  -1.036965   1.475315   0.000686  -0.001105   1.862856  -1.316473   1.038883  11.264306  -0.001070  -0.001148 -12.625553   0.976846   0.976833   1.257377  -0.001099   0.001525
 -2.374594   0.918797   3.988094  -3.291115   1.134658  -0.611522   1.806814   0.455548   1.183243   0.094406  -1.233751   1.259357   0.123974   1.219181   0.418385   0.859808  -4.703207   9.893991   3.048213   1.512893  30.977219   0.102329   8.026739  -0.003819   1.057893  -0.521420  -1.998668   0.363427   4.219645  -8.089935   2.845110  -1.065020 -29.469782   0.121503 -12.052478  -0.000003   1.463826  -0.438081   0.819201   0.964962  -0.595330  -0.338283  15.337655   0.001928  -0.001726 -13.255398  -1.847853  -1.050879   1.701876   0.000250  -0.001204   2.024309  -1.311059   0.909120  11.382165  -0.000849  -0.000944 -13.431761   1.159347   1.146174   1.442655  -0.001099   0.001505
